<svg width="24" height="24" viewBox="0 0 24 24" fill="none" xmlns="http://www.w3.org/2000/svg">
<circle cx="12" cy="12" r="11" fill="url(#paint0_linear_674_1710)"/>
<path fill-rule="evenodd" clip-rule="evenodd" d="M7.66041 7.48804H6.20285V8.48531H7.66041V9.2908H6.20285V10.2881H7.66041V16.9622H8.65768V10.2881H10.1152V9.2908H8.65768V8.48531H10.1152V7.48804H8.65768H7.66041ZM11.1643 7.52635H15.9539L15.303 9.30073H15.9455V13.7018H10.729V12.7045H14.9482V12.0141H10.729V11.0168H14.9482V10.298H10.729V9.30073H14.2409L14.5259 8.52362H11.8747L11.699 9.03185L10.7562 8.70582L11.1643 7.52635ZM11.7231 15.9372H13.5673V14.2004H14.5646V16.9345H10.7259V14.2131H11.7231V15.9372ZM13.1454 14.2004H12.1482V15.2744H13.1454V14.2004ZM14.9482 14.2004H15.9455V16.9621H14.9482V14.2004ZM7.20013 11.0169H6.20285V16.9622H7.20013V11.0169ZM9.11796 11.0169H10.1152V16.9622H9.11796V11.0169ZM19.1368 7.53875H17.1704V8.62757H17.804V8.17235H18.5032V8.50451L17.1704 9.96136V10.7954H19.104V10.1618H17.8458L19.1368 8.75062V7.53875Z" fill="white"/>
<defs>
<linearGradient id="paint0_linear_674_1710" x1="1" y1="-1.15686" x2="25.1967" y2="1.29161" gradientUnits="userSpaceOnUse">
<stop stop-color="#41A558"/>
<stop offset="1" stop-color="#44A69B"/>
</linearGradient>
</defs>
</svg>
