<svg width="24" height="24" viewBox="0 0 24 24" fill="none" xmlns="http://www.w3.org/2000/svg">
<circle cx="12" cy="12" r="11" fill="white"/>
<path d="M6.12764 18.6214C5.77801 18.6465 5.4268 18.6394 5.07846 18.6002C4.85883 18.5738 4.64308 18.5216 4.43566 18.4447C4.33549 18.4072 4.23938 18.3597 4.14877 18.3029C4.08678 18.2621 4.02908 18.215 3.97657 18.1626C3.81704 17.9983 3.70208 17.7961 3.64255 17.575C3.56688 17.2651 3.56383 16.942 3.63364 16.6307C3.76577 15.9838 4.07232 15.3468 4.4364 14.754C4.81067 14.1562 5.22688 13.5856 5.68192 13.0466C5.94171 12.7341 6.21053 12.4281 6.48838 12.1287L5.93948 11.7371L5.90237 11.7096C5.12671 12.5258 4.41042 13.4078 3.84036 14.4025C3.65185 14.7294 3.48594 15.0689 3.34379 15.4184C3.19542 15.7762 3.09135 16.1508 3.0339 16.5338C2.96858 16.9367 2.99793 17.3492 3.11963 17.7387C3.18673 17.9392 3.28862 18.1262 3.42062 18.2914C3.48555 18.3742 3.55771 18.4511 3.63625 18.5212C3.71715 18.5925 3.80506 18.6556 3.89864 18.7093C4.26976 18.9128 4.66316 18.977 5.04097 18.9959C5.4147 19.0102 5.78891 18.9871 6.15808 18.9272C6.81572 18.824 7.45258 18.6158 8.06645 18.3786L8.09501 18.2788C7.90462 18.3363 7.61439 18.415 7.44405 18.448C7.00947 18.5343 6.56974 18.5922 6.12764 18.6214ZM10.3637 8.66557C10.6187 8.48371 10.88 8.30776 11.1431 8.13661L11.2433 7.83265L11.4092 7.33525C10.9423 7.60621 10.4846 7.89298 10.036 8.19563C9.42994 8.60655 8.84247 9.05231 8.27912 9.51818C7.84783 9.87225 7.42524 10.2378 7.01131 10.6146L8.00892 10.6064C8.74978 9.90809 9.53604 9.25962 10.3626 8.6652L10.3637 8.66557ZM16.85 11.0211H13.6516C13.4456 10.3329 13.2626 9.73198 13.0518 9.04603C12.8332 8.32893 12.6065 7.61178 12.3838 6.89874L12.1912 6.29594L11.9893 6.89763L11.6312 7.96626L11.2789 9.03378L10.6287 11.0062L8.5463 11.0125L7.42215 11.0177L6.29799 11.0285L5.66113 11.0348L6.17737 11.4026C6.78949 11.8377 7.40137 12.2707 8.01298 12.7018L8.93078 13.3484L9.77435 13.9352C9.60661 14.5016 9.44208 15.0688 9.28078 15.6367L9.02652 16.5405L8.56372 18.1626V18.17L16.8455 11.0207L16.85 11.0211ZM20.356 5.50644C19.5255 4.85279 17.5963 4.48867 12.7275 6.63001L12.8811 7.11811C12.8811 7.11811 18.0131 4.58146 19.7949 5.65157C22.5958 7.33525 17.4238 11.4925 14.2728 13.822L14.3011 13.9333C14.4729 14.5918 14.6558 15.2459 14.8336 15.9006L15.24 17.3382L13.9986 16.5079C13.4296 16.1367 12.8655 15.7588 12.2914 15.3943L12.1956 15.3334L12.1117 15.3973L11.217 16.0788L10.3263 16.7673L9.44182 17.4625C9.14755 17.6956 8.85028 17.9347 8.55929 18.1722C8.87514 17.9692 9.19432 17.7603 9.50643 17.552L10.4417 16.9262L11.3695 16.2915L12.2042 15.7139C12.7286 16.0884 13.2597 16.4541 13.7874 16.8234L15.4701 17.9741L15.9337 18.2917L15.7756 17.7521L15.2014 15.7981C15.0129 15.182 14.8303 14.5636 14.6358 13.9493C14.6336 13.9493 23.4056 7.91357 20.356 5.50681V5.50644Z" fill="url(#paint0_linear_1326_2391)"/>
<defs>
<linearGradient id="paint0_linear_1326_2391" x1="3.00013" y1="12.0003" x2="21" y2="12.0003" gradientUnits="userSpaceOnUse">
<stop stop-color="#2357EB"/>
<stop offset="1" stop-color="#011E80"/>
</linearGradient>
</defs>
</svg>
