<svg width="160" height="160" viewBox="0 0 160 160" fill="none" xmlns="http://www.w3.org/2000/svg">
<path fill-rule="evenodd" clip-rule="evenodd" d="M33.7415 32H19.0187V42.0735H33.7415V50.2098H19.0187V60.2833H33.7415V127.698H43.815V60.2833H58.5378V50.2098H43.815V42.0735H58.5378V32H43.815H33.7415ZM69.1344 32.387H117.514L110.939 50.31H117.429V94.7652H64.737V84.6917H107.356V77.7177H64.737V67.6442H107.356V60.3835H64.737V50.31H100.211L103.09 42.4605H76.3099L74.5354 47.5941L65.0121 44.3008L69.1344 32.387ZM74.7792 117.345H93.4074V99.8021H103.481V127.419H64.7057V99.9299H74.7792V117.345ZM89.1459 99.8021H79.0724V110.65H89.1459V99.8021ZM107.355 99.8021H117.429V127.698H107.355V99.8021ZM29.0922 67.6448H19.0187V127.698H29.0922V67.6448ZM48.4643 67.6448H58.5378V127.698H48.4643V67.6448ZM149.665 32.5122H129.802V43.5104H136.202V38.9122H143.265V42.2675L129.802 56.9831V65.4077H149.333V59.0077H136.624L149.665 44.7534V32.5122Z" fill="white"/>
</svg>
