<svg width="730" height="198" viewBox="0 0 730 198" fill="none" xmlns="http://www.w3.org/2000/svg">
<path fill-rule="evenodd" clip-rule="evenodd" d="M21.6933 44.5H38.4864H49.9765H66.7697V55.9901H49.9765V65.2705H66.7697V76.7606H49.9765V153.656H38.4864V76.7606H21.6933V65.2705H38.4864V55.9901H21.6933V44.5ZM134.04 44.9414H78.8565L74.1544 58.5306L85.0169 62.287L87.0409 56.4315H117.587L114.303 65.3849H73.8406V76.875H122.452V85.1567H73.8406V96.6468H122.452V104.601H73.8406V116.091H133.943V65.3849H126.54L134.04 44.9414ZM106.543 141.847H85.295V121.983H73.805V153.337H118.033V121.837H106.543V141.847ZM90.1919 121.837H101.682V134.211H90.1919V121.837ZM133.942 121.837H122.452V153.655H133.942V121.837ZM21.6933 85.1573H33.1833V153.656H21.6933V85.1573ZM66.7697 85.1573H55.2796V153.656H66.7697V85.1573ZM148.055 45.0843H170.711V59.0468L155.837 75.3056H170.333V82.6056H148.055V72.9963L163.411 56.2113V52.3843H155.355V57.6291H148.055V45.0843ZM354.074 65.4923L295.094 65.558V153.831H354.14V140.675H308.23V78.7134L354.074 78.6477V65.4923ZM440.279 153.83V65.5572H427.143V134.294L383.302 65.5243H366.882V153.83H380.018V84.797L424.024 153.83H440.279ZM190.104 153.831V65.5584H203.24V140.676H268.887V65.5584H282.023V153.831H190.104ZM242.779 65.5577H229.643V120.942H242.779V65.5577ZM327.934 101.308H354.14V114.464H327.934V101.308ZM623.954 65.4923L564.973 65.558V153.831H624.019V140.675H578.109V78.7134L623.954 78.6477V65.4923ZM710.159 65.5572V153.83H693.903L649.897 84.797V153.83H636.761V65.5243H653.181L697.023 134.294V65.5572H710.159ZM459.983 65.5584V153.831H551.903V65.5584H538.766V140.676H473.119V65.5584H459.983ZM499.523 65.5577H512.659V120.942H499.523V65.5577ZM624.019 101.308H597.813V114.464H624.019V101.308Z" fill="white"/>
</svg>
